<?xml version="1.0" encoding="utf-8"?>
<!-- Generator: Adobe Illustrator 24.3.0, SVG Export Plug-In . SVG Version: 6.00 Build 0)  -->
<svg version="1.1" id="Layer_1" xmlns="http://www.w3.org/2000/svg" xmlns:xlink="http://www.w3.org/1999/xlink" x="0px" y="0px"
	 viewBox="0 0 1000 291.51" style="enable-background:new 0 0 1000 291.51;" xml:space="preserve">
<style type="text/css">
	.st0{fill:#FFFFFF;}
	.st1{fill:none;}
</style>
<g>
	<path class="st0" d="M507.13,36.49c11.42-3.35,18.81,0.01,25.93,9.36c28.92,38,58.72,75.34,88.22,112.91
		c2.29,2.91,4.73,5.7,9.23,11.11c0-46.43,0-89.7,0-133.74c12.9,0,24.42,0,36.51,0c0,74.27,0,148.17,0,222.12
		c-9.4,2.98-15.6,0.74-21.58-7.23c-30.95-41.24-62.52-82.02-93.9-122.94c-1.85-2.41-3.95-4.64-7.84-9.16c0,47.23,0,91.88,0,137.31
		c-12.92,0-24.44,0-36.56,0C507.13,182.75,507.13,109.57,507.13,36.49z"/>
	<path class="st0" d="M318.67,243.25c-39.14,29.95-106.45,19.5-127.89-19.58c-21.24-38.72-16.17-110.47,48.44-128.58
		c42.15-11.81,88.12,8.74,96.65,54.91c2.12,11.48,0.32,23.7,0.32,36.7c-40.07,0-78,0-117.23,0c-0.66,14.58,4.24,25.82,14.99,33.03
		c23.35,15.64,47.02,11.72,71.11-2.1C309.57,226.11,314.03,234.51,318.67,243.25z M221.07,158.6c26.28,0,52.54,0,78.82,0
		c-0.82-23.03-15.39-36.3-38.72-36.27C238.41,122.36,221.9,137.12,221.07,158.6z"/>
	<path class="st0" d="M834.65,110.3c-25.69-21.45-55.51-24.11-85.65-10.94c-35.33,15.44-53.23,53.54-46.24,94.17
		c6.46,37.57,24.97,58.16,60.37,64.49c20.59,3.68,41.42,2.41,61.26-5.3c5.59-2.17,10.67-5.65,16.37-8.74
		c-5.17-9.65-9.64-18-14.19-26.5c-23.03,13.95-45.8,17.13-68.65,3.92c-12.12-7.01-17.51-18.83-17.55-34.24c38.84,0,76.77,0,115.78,0
		C863.18,156.28,858.22,129.98,834.65,110.3z M743.28,159.11c-1.48-19.21,15.27-35.76,36.73-36.76
		c24.91-1.17,41.37,12.94,41.36,36.76C794.89,159.11,769.07,159.11,743.28,159.11z"/>
	<path class="st0" d="M24.74,243.94c4.57-10.84,8.95-21.24,13.7-32.51c15.89,9.24,31.48,16.4,49.45,15.13
		c12.36-0.87,24.5-2.37,30.22-15.78c4.57-10.72,0.55-26.13-10.78-35.42c-8.74-7.17-18.88-12.68-28.63-18.56
		c-8.28-5-17.07-9.16-25.31-14.22c-21.66-13.31-30.94-33.45-28.37-58.1c2.73-26.2,18.71-42.67,43.6-49.77
		c23.76-6.77,47.23-4.02,69.99,5.3c6.37,2.61,9.22,6.27,5.84,13.62c-3.29,7.15-5.29,14.89-8.27,23.59c-3.59-1.83-6.33-3.89-9.4-4.67
		c-12.57-3.18-25.11-7.23-37.9-8.5c-11.1-1.1-19.84,5.25-24.27,16.02c-4.54,11.03-1.46,21,7.07,28.15
		c9.2,7.71,19.62,14.03,29.84,20.44c7.31,4.58,15.36,7.96,22.72,12.47c26.57,16.31,38.15,42.53,31.98,71.58
		c-4.9,23.05-28.59,42.27-56.96,46.21C70.52,262.91,45.06,257.97,24.74,243.94z"/>
	<path class="st0" d="M934.05,123.73c0,29.68-1.01,57.68,0.38,85.55c0.82,16.41,15.43,23.25,34.77,18.71
		c4.64-1.09,9.12-2.83,14.45-4.52c0,5.6,0,10.42,0,15.24c0,18.72,0.01,18.87-18.44,20.17c-7.93,0.56-15.93,0.76-23.86,0.4
		c-26-1.19-43.34-18.21-44.12-44.3c-0.77-25.59-0.42-51.22-0.55-76.83c-0.02-4.09,0-8.17,0-13.32c-6.35-0.49-11.67-0.9-17.84-1.38
		c0-9.02,0-17.78,0-26.4c0.81-0.53,1.33-1.17,1.92-1.23c15.91-1.75,16.87-1.81,15.61-18.11c-0.99-12.79,3.52-19.05,15.7-21.65
		c6.95-1.48,13.53-4.65,21.47-7.48c0,15.86,0,30.29,0,46.67c10.99,0,21.3,0.79,31.43-0.21c10.99-1.09,14.22,3.27,12.92,13.42
		c-0.6,4.68-0.1,9.49-0.1,15.27C962.87,123.73,949.17,123.73,934.05,123.73z"/>
	<path class="st0" d="M372.08,95.94c11.73,0,22.99,0,34.99,0c0.53,3.71,1.05,7.34,1.81,12.63c21.32-18.31,44.58-20.47,71.14-10.96
		c-5.38,10.72-10.24,20.42-15.04,29.99c-36.28-11.62-56.97,3.81-57.02,41.51c-0.03,28.05-0.09,56.1-0.16,84.15
		c0,0.66-0.33,1.32-0.71,2.78c-11.3,0-22.84,0-35.01,0C372.08,203.1,372.08,150.25,372.08,95.94z"/>
	<path class="st1" d="M221.07,158.6c0.83-21.49,17.34-36.25,40.1-36.27c23.32-0.02,37.9,13.24,38.72,36.27
		C273.61,158.6,247.36,158.6,221.07,158.6z"/>
</g>
</svg>
